<?xml version="1.0" encoding="UTF-8"?>
<svg height="200" viewBox="0 0 200 200" width="200" xmlns="http://www.w3.org/2000/svg">
    <!-- Monochrome version for single-color contexts -->

    <!-- Main hexagonal frame -->
    <polygon fill="none" points="100,55 130,72.5 130,127.5 100,145 70,127.5 70,72.5"
        stroke="currentColor" stroke-width="3" />

    <!-- Sensor nodes -->
    <circle cx="100" cy="45" fill="currentColor" opacity="0.8" r="6" />
    <circle cx="147.5" cy="72.5" fill="currentColor" opacity="0.8" r="6" />
    <circle cx="147.5" cy="127.5" fill="currentColor" opacity="0.8" r="6" />
    <circle cx="100" cy="155" fill="currentColor" opacity="0.8" r="6" />
    <circle cx="52.5" cy="127.5" fill="currentColor" opacity="0.8" r="6" />
    <circle cx="52.5" cy="72.5" fill="currentColor" opacity="0.8" r="6" />

    <!-- Connection lines -->
    <g fill="none" opacity="0.4" stroke="currentColor" stroke-width="1">
        <line x1="100" x2="100" y1="100" y2="45" />
        <line x1="100" x2="147.5" y1="100" y2="72.5" />
        <line x1="100" x2="147.5" y1="100" y2="127.5" />
        <line x1="100" x2="100" y1="100" y2="155" />
        <line x1="100" x2="52.5" y1="100" y2="127.5" />
        <line x1="100" x2="52.5" y1="100" y2="72.5" />
    </g>

    <!-- Central AI node -->
    <circle cx="100" cy="100" fill="currentColor" r="15" />
    <circle cx="100" cy="100" fill="white" r="8" />
    <circle cx="100" cy="100" fill="currentColor" r="3" />
</svg>