<?xml version="1.0" encoding="UTF-8"?>
<svg width="1024" height="1024" viewBox="0 0 1024 1024" xmlns="http://www.w3.org/2000/svg">
  <!-- App icon version optimized for iOS/Android -->
  
  <!-- Background with rounded corners for iOS -->
  <rect x="0" y="0" width="1024" height="1024" rx="180" ry="180" fill="url(#bgGradient)"/>
  
  <!-- Gradient definitions -->
  <defs>
    <linearGradient id="bgGradient" x1="0%" y1="0%" x2="100%" y2="100%">
      <stop offset="0%" style="stop-color:#6366F1;stop-opacity:1" />
      <stop offset="100%" style="stop-color:#4338CA;stop-opacity:1" />
    </linearGradient>
    
    <radialGradient id="centerGradient" cx="50%" cy="50%" r="50%">
      <stop offset="0%" style="stop-color:#FFFFFF;stop-opacity:1" />
      <stop offset="100%" style="stop-color:#E2E8F0;stop-opacity:1" />
    </radialGradient>
    
    <radialGradient id="emeraldNode" cx="50%" cy="50%" r="50%">
      <stop offset="0%" style="stop-color:#34D399;stop-opacity:1" />
      <stop offset="100%" style="stop-color:#10B981;stop-opacity:1" />
    </radialGradient>
    
    <radialGradient id="amberNode" cx="50%" cy="50%" r="50%">
      <stop offset="0%" style="stop-color:#FBBF24;stop-opacity:1" />
      <stop offset="100%" style="stop-color:#F59E0B;stop-opacity:1" />
    </radialGradient>
  </defs>
  
  <!-- Main hexagonal structure (scaled for icon) -->
  <polygon points="512,200 650,300 650,500 512,600 374,500 374,300" 
           fill="none" 
           stroke="#FFFFFF" 
           stroke-width="20" 
           stroke-opacity="0.9"/>
  
  <!-- Connection lines -->
  <g stroke="#FFFFFF" stroke-width="8" stroke-opacity="0.6" fill="none">
    <line x1="512" y1="400" x2="512" y2="150"/>
    <line x1="512" y1="400" x2="700" y2="250"/>
    <line x1="512" y1="400" x2="700" y2="550"/>
    <line x1="512" y1="400" x2="512" y2="650"/>
    <line x1="512" y1="400" x2="324" y2="550"/>
    <line x1="512" y1="400" x2="324" y2="250"/>
  </g>
  
  <!-- Sensor nodes -->
  <circle cx="512" cy="150" r="40" fill="url(#amberNode)" stroke="#FFFFFF" stroke-width="6"/>
  <circle cx="700" cy="250" r="40" fill="url(#emeraldNode)" stroke="#FFFFFF" stroke-width="6"/>
  <circle cx="700" cy="550" r="40" fill="url(#amberNode)" stroke="#FFFFFF" stroke-width="6"/>
  <circle cx="512" cy="650" r="40" fill="url(#emeraldNode)" stroke="#FFFFFF" stroke-width="6"/>
  <circle cx="324" cy="550" r="40" fill="url(#amberNode)" stroke="#FFFFFF" stroke-width="6"/>
  <circle cx="324" cy="250" r="40" fill="url(#emeraldNode)" stroke="#FFFFFF" stroke-width="6"/>
  
  <!-- Central AI core -->
  <circle cx="512" cy="400" r="80" fill="url(#centerGradient)" stroke="#FFFFFF" stroke-width="8"/>
  
  <!-- Neural network pattern in center -->
  <g fill="#6366F1" opacity="0.8">
    <circle cx="512" cy="400" r="20"/>
    <!-- Connection nodes -->
    <circle cx="490" cy="385" r="6"/>
    <circle cx="534" cy="385" r="6"/>
    <circle cx="534" cy="415" r="6"/>
    <circle cx="490" cy="415" r="6"/>
    <!-- Connecting lines -->
    <line x1="512" y1="400" x2="490" y2="385" stroke="#6366F1" stroke-width="3"/>
    <line x1="512" y1="400" x2="534" y2="385" stroke="#6366F1" stroke-width="3"/>
    <line x1="512" y1="400" x2="534" y2="415" stroke="#6366F1" stroke-width="3"/>
    <line x1="512" y1="400" x2="490" y2="415" stroke="#6366F1" stroke-width="3"/>
  </g>
  
  <!-- Subtle outer glow rings -->
  <circle cx="512" cy="400" r="200" fill="none" stroke="#FFFFFF" stroke-width="3" stroke-opacity="0.1"/>
  <circle cx="512" cy="400" r="250" fill="none" stroke="#FFFFFF" stroke-width="2" stroke-opacity="0.05"/>
</svg>