<?xml version="1.0" encoding="UTF-8"?>
<svg height="1024" viewBox="0 0 1024 1024" width="1024" xmlns="http://www.w3.org/2000/svg">
    <!-- Background with rounded corners for iOS -->
    <rect fill="url(#bgGradient)" height="1024" rx="230" ry="230" width="1024" x="0" y="0" />

    <!-- Gradient definitions -->
    <defs>
        <linearGradient id="bgGradient" x1="0%" x2="100%" y1="0%" y2="100%">
            <stop style="stop-color:#6366F1;stop-opacity:1" offset="0%" />
            <stop style="stop-color:#4338CA;stop-opacity:1" offset="100%" />
        </linearGradient>

        <radialGradient cx="50%" cy="50%" id="centerGradient" r="50%">
            <stop style="stop-color:#FFFFFF;stop-opacity:1" offset="0%" />
            <stop style="stop-color:#E2E8F0;stop-opacity:1" offset="100%" />
        </radialGradient>

        <radialGradient cx="50%" cy="50%" id="emeraldNode" r="50%">
            <stop style="stop-color:#34D399;stop-opacity:1" offset="0%" />
            <stop style="stop-color:#10B981;stop-opacity:1" offset="100%" />
        </radialGradient>

        <radialGradient cx="50%" cy="50%" id="amberNode" r="50%">
            <stop style="stop-color:#FBBF24;stop-opacity:1" offset="0%" />
            <stop style="stop-color:#F59E0B;stop-opacity:1" offset="100%" />
        </radialGradient>
    </defs>

    <!-- Main hexagonal structure (centered and properly sized) -->
    <g transform="translate(512, 512)">
        <!-- Hexagon outline -->
        <polygon fill="none" points="0,-200 173.2,-100 173.2,100 0,200 -173.2,100 -173.2,-100"
            stroke="#FFFFFF" stroke-linejoin="round" stroke-opacity="0.95" stroke-width="24" />

        <!-- Connection lines from center to nodes -->
        <g fill="none" stroke="#FFFFFF" stroke-opacity="0.7" stroke-width="10">
            <line x1="0" x2="0" y1="0" y2="-200" />
            <line x1="0" x2="173.2" y1="0" y2="-100" />
            <line x1="0" x2="173.2" y1="0" y2="100" />
            <line x1="0" x2="0" y1="0" y2="200" />
            <line x1="0" x2="-173.2" y1="0" y2="100" />
            <line x1="0" x2="-173.2" y1="0" y2="-100" />
        </g>

        <!-- Sensor nodes at hexagon vertices -->
        <circle cx="0" cy="-200" fill="url(#emeraldNode)" r="50" stroke="#FFFFFF"
            stroke-width="8" />
        <circle cx="173.2" cy="-100" fill="url(#amberNode)" r="50" stroke="#FFFFFF"
            stroke-width="8" />
        <circle cx="173.2" cy="100" fill="url(#emeraldNode)" r="50" stroke="#FFFFFF"
            stroke-width="8" />
        <circle cx="0" cy="200" fill="url(#amberNode)" r="50" stroke="#FFFFFF" stroke-width="8" />
        <circle cx="-173.2" cy="100" fill="url(#emeraldNode)" r="50" stroke="#FFFFFF"
            stroke-width="8" />
        <circle cx="-173.2" cy="-100" fill="url(#amberNode)" r="50" stroke="#FFFFFF"
            stroke-width="8" />

        <!-- Central AI core -->
        <circle cx="0" cy="0" fill="url(#centerGradient)" r="100" stroke="#FFFFFF"
            stroke-width="10" />

        <!-- Neural network pattern in center -->
        <g fill="#6366F1">
            <!-- Central hub -->
            <circle cx="0" cy="0" opacity="0.9" r="25" />

            <!-- Neural nodes around center -->
            <circle cx="-30" cy="0" opacity="0.7" r="8" />
            <circle cx="30" cy="0" opacity="0.7" r="8" />
            <circle cx="0" cy="-30" opacity="0.7" r="8" />
            <circle cx="0" cy="30" opacity="0.7" r="8" />

            <!-- Diagonal nodes -->
            <circle cx="-21" cy="-21" opacity="0.6" r="6" />
            <circle cx="21" cy="-21" opacity="0.6" r="6" />
            <circle cx="21" cy="21" opacity="0.6" r="6" />
            <circle cx="-21" cy="21" opacity="0.6" r="6" />

            <!-- Connecting lines -->
            <g opacity="0.5" stroke="#6366F1" stroke-width="3">
                <line x1="0" x2="-30" y1="0" y2="0" />
                <line x1="0" x2="30" y1="0" y2="0" />
                <line x1="0" x2="0" y1="0" y2="-30" />
                <line x1="0" x2="0" y1="0" y2="30" />
                <line x1="0" x2="-21" y1="0" y2="-21" />
                <line x1="0" x2="21" y1="0" y2="-21" />
                <line x1="0" x2="21" y1="0" y2="21" />
                <line x1="0" x2="-21" y1="0" y2="21" />
            </g>
        </g>

        <!-- Pulse effect rings -->
        <circle cx="0" cy="0" fill="none" r="140" stroke="#FFFFFF" stroke-opacity="0.15"
            stroke-width="3" />
        <circle cx="0" cy="0" fill="none" r="180" stroke="#FFFFFF" stroke-opacity="0.1"
            stroke-width="2" />
        <circle cx="0" cy="0" fill="none" r="220" stroke="#FFFFFF" stroke-opacity="0.05"
            stroke-width="1" />
    </g>
</svg>