<?xml version="1.0" encoding="UTF-8"?>
<svg width="1024" height="1024" viewBox="0 0 1024 1024" xmlns="http://www.w3.org/2000/svg">
  <!-- Gradient definitions -->
  <defs>
    <radialGradient id="centerGradient" cx="50%" cy="50%" r="50%">
      <stop offset="0%" style="stop-color:#FFFFFF;stop-opacity:1" />
      <stop offset="100%" style="stop-color:#E2E8F0;stop-opacity:1" />
    </radialGradient>
    
    <radialGradient id="emeraldNode" cx="50%" cy="50%" r="50%">
      <stop offset="0%" style="stop-color:#34D399;stop-opacity:1" />
      <stop offset="100%" style="stop-color:#10B981;stop-opacity:1" />
    </radialGradient>
    
    <radialGradient id="amberNode" cx="50%" cy="50%" r="50%">
      <stop offset="0%" style="stop-color:#FBBF24;stop-opacity:1" />
      <stop offset="100%" style="stop-color:#F59E0B;stop-opacity:1" />
    </radialGradient>
  </defs>
  
  <!-- Main hexagonal structure (centered and properly sized) -->
  <g transform="translate(512, 512)">
    <!-- Hexagon outline (scaled down for adaptive icon safe area) -->
    <polygon points="0,-150 130,-75 130,75 0,150 -130,75 -130,-75" 
             fill="none" 
             stroke="#FFFFFF" 
             stroke-width="18" 
             stroke-opacity="0.95"
             stroke-linejoin="round"/>
    
    <!-- Connection lines from center to nodes -->
    <g stroke="#FFFFFF" stroke-width="8" stroke-opacity="0.7" fill="none">
      <line x1="0" y1="0" x2="0" y2="-150"/>
      <line x1="0" y1="0" x2="130" y2="-75"/>
      <line x1="0" y1="0" x2="130" y2="75"/>
      <line x1="0" y1="0" x2="0" y2="150"/>
      <line x1="0" y1="0" x2="-130" y2="75"/>
      <line x1="0" y1="0" x2="-130" y2="-75"/>
    </g>
    
    <!-- Sensor nodes at hexagon vertices (scaled down) -->
    <circle cx="0" cy="-150" r="37" fill="url(#emeraldNode)" stroke="#FFFFFF" stroke-width="6"/>
    <circle cx="130" cy="-75" r="37" fill="url(#amberNode)" stroke="#FFFFFF" stroke-width="6"/>
    <circle cx="130" cy="75" r="37" fill="url(#emeraldNode)" stroke="#FFFFFF" stroke-width="6"/>
    <circle cx="0" cy="150" r="37" fill="url(#amberNode)" stroke="#FFFFFF" stroke-width="6"/>
    <circle cx="-130" cy="75" r="37" fill="url(#emeraldNode)" stroke="#FFFFFF" stroke-width="6"/>
    <circle cx="-130" cy="-75" r="37" fill="url(#amberNode)" stroke="#FFFFFF" stroke-width="6"/>
    
    <!-- Central AI core (scaled down) -->
    <circle cx="0" cy="0" r="75" fill="url(#centerGradient)" stroke="#FFFFFF" stroke-width="8"/>
    
    <!-- Neural network pattern in center (scaled down) -->
    <g fill="#6366F1">
      <!-- Central hub -->
      <circle cx="0" cy="0" r="18" opacity="0.9"/>
      
      <!-- Neural nodes around center -->
      <circle cx="-22" cy="0" r="6" opacity="0.7"/>
      <circle cx="22" cy="0" r="6" opacity="0.7"/>
      <circle cx="0" cy="-22" r="6" opacity="0.7"/>
      <circle cx="0" cy="22" r="6" opacity="0.7"/>
      
      <!-- Diagonal nodes -->
      <circle cx="-16" cy="-16" r="4" opacity="0.6"/>
      <circle cx="16" cy="-16" r="4" opacity="0.6"/>
      <circle cx="16" cy="16" r="4" opacity="0.6"/>
      <circle cx="-16" cy="16" r="4" opacity="0.6"/>
      
      <!-- Connecting lines -->
      <g stroke="#6366F1" stroke-width="2" opacity="0.5">
        <line x1="0" y1="0" x2="-22" y2="0"/>
        <line x1="0" y1="0" x2="22" y2="0"/>
        <line x1="0" y1="0" x2="0" y2="-22"/>
        <line x1="0" y1="0" x2="0" y2="22"/>
        <line x1="0" y1="0" x2="-16" y2="-16"/>
        <line x1="0" y1="0" x2="16" y2="-16"/>
        <line x1="0" y1="0" x2="16" y2="16"/>
        <line x1="0" y1="0" x2="-16" y2="16"/>
      </g>
    </g>
  </g>
</svg>